<svg xmlns="http://www.w3.org/2000/svg" xmlns:xlink="http://www.w3.org/1999/xlink" width="291.984" height="78.226" viewBox="0 0 291.984 78.226">
  <defs>
    <clipPath id="clip-path">
      <rect id="Rectangle_258" data-name="Rectangle 258" width="291.984" height="78.226" transform="translate(0 0.001)" fill="none"/>
    </clipPath>
  </defs>
  <g id="Group_61" data-name="Group 61" transform="translate(0 -0.001)" clip-path="url(#clip-path)">
    <path id="Path_60" data-name="Path 60" d="M108.643,2.609l.374,9.3-.982.139-.329-.7-.514-.888-1.355-1.918a14.065,14.065,0,0,0-1.328-1.637c-.456-.467-.977-.961-1.569-1.494A10.7,10.7,0,0,0,100,3.73,13.374,13.374,0,0,0,98.5,3.285a10.572,10.572,0,0,0-1.867-.115A4.858,4.858,0,0,0,92.144,5.6q-2.1,3.5-2.1,9.9,0,6.216,2.054,9.767a5.879,5.879,0,0,0,8.927.7c.655-.933.977-2.554.977-4.863,0-1.892-.233-3.111-.7-3.644s-1.542-.787-3.226-.787h-1.4v-.844h19.587v.844h-1.778a7.222,7.222,0,0,0-1.893.162,2.222,2.222,0,0,0-1.049.793,3.652,3.652,0,0,0-.726,1.562,7.666,7.666,0,0,0-.213,1.613v3.3l.049,1.588a9.386,9.386,0,0,0,.323,2.149l-.51.373a7.126,7.126,0,0,0-4.349-1.3,18.451,18.451,0,0,0-4.487.791l-1.915.561-1.073.191-1.171.186-2.525.136a15.184,15.184,0,0,1-10.632-3.9,12.636,12.636,0,0,1-4.273-9.742,12.9,12.9,0,0,1,1.027-5.211,13.5,13.5,0,0,1,3.224-4.418Q88.125,2,94.622,2a16.211,16.211,0,0,1,3.644.33l1.682.514,1.916.839,1.355.563.981.139a5.455,5.455,0,0,0,3.694-1.776Zm-22.1,11.969H81.068l-.045.647.045.984h5.473Zm.277-2.248H81.4l-.14.75-.188.885h5.561l.049-.932Zm-.277,4.486H81.162l.142.977.182.7h5.192Zm.743-6.775h-5.09l-.376.885-.281.75H86.91l.188-.938ZM86.818,19.1h-5.14l.276.844.422.793h4.77l-.189-.793ZM88.173,7.8H83.5l-.557.793-.471.8h5l.28-.7Zm-.841,13.6H82.706l.376.657.7.931h4.16l-.371-.931Zm2.149-15.89h-3.83l-.707.605-.976,1.031h4.483l.468-.75ZM88.173,23.641H84.292a8.289,8.289,0,0,0,1.873,1.583l2.945.047-.471-.74Zm1.773-18.79.705-.794,1.12-1.03a14.191,14.191,0,0,0-2.712.518,7.678,7.678,0,0,0-1.168.56c-.434.246-.887.5-1.35.746ZM89.53,25.883H87.194q.795.419,1.487.7c.1.029.8.277,2.107.748Zm18.364-.659h-5.56a4.723,4.723,0,0,1-.937,1.688l.7-.189a17.443,17.443,0,0,1,3.926-.561l.933.047.934.142Zm.28-7.333.19-.514L108.5,17l.14-.324h-7.059l.8,1.211Zm-.28,5.093h-5.14l-.233,1.684h5.373Zm.141-4.486h-5.466l.185.836.043.8h5.144Zm-.141,2.244h-5.1v.42l-.043,1.262h5.14ZM106.305,5.506v-.8a4.153,4.153,0,0,1-2.105.56l.235.235Zm.047.656H105l.793.932.656.935Z" fill="#002a55"/>
    <path id="Path_61" data-name="Path 61" d="M118.13,3.121h20.748l3.322.049a10.857,10.857,0,0,1,2.078.209,14.823,14.823,0,0,1,2.08.582,5.375,5.375,0,0,1,2.8,2.2,5.975,5.975,0,0,1,1.074,3.5q0,5.52-6.776,6.686l4.3,8.13a5.481,5.481,0,0,0,1.914,2.286,5.838,5.838,0,0,0,3.041.656v.888H140.888l-6.494-11.917h-2.06v6.869a11.983,11.983,0,0,0,.192,2.343,2.454,2.454,0,0,0,.744,1.047,2.791,2.791,0,0,0,1.124.631l2.243.139h.184v.888H118.13v-.888h1.17l2.054-.088a3.365,3.365,0,0,0,.7-.145l.563-.423a2.242,2.242,0,0,0,.719-1.118,9.18,9.18,0,0,0,.213-2.386V8.174c0-.561-.016-1.039-.042-1.43a7.645,7.645,0,0,0-.171-1.1,1.366,1.366,0,0,0-.514-.818,4.6,4.6,0,0,0-.72-.467,2.187,2.187,0,0,0-.61-.211L119.3,4.008h-1.17Zm11.4,2.061V4.008h-6.259a4.074,4.074,0,0,1,.928,1.174Zm.094,21.074H124.2a2.644,2.644,0,0,1-.416.656l-.512.51h7.008a6.242,6.242,0,0,1-.655-1.166m-.094-20.42h-5.137l.088.793.051.84h5Zm0,18.129h-5v1.076l-.139.564h5.137Zm0-15.842h-4.957V9.711h4.957Zm0,2.246h-4.957V12h4.957Zm0,2.24h-4.957v1.682h4.957Zm0,2.291h-4.957v1.635h4.957Zm0,2.243h-4.957v1.682h4.957Zm0,2.285h-4.957v1.639h4.957Zm0,2.252h-4.957v1.635h4.957Zm2.8-6.127h2.385q5.9,0,5.891-5.744a5.556,5.556,0,0,0-1.918-4.676,6.813,6.813,0,0,0-4.3-1.125h-2.06Zm11.4-.653h-3.969l-.75.555-.888.381-1.122.373-1.541.184.048.142h4.815l1.958-.887.7-.287Zm-3.08,2.243h-4.772l.89,1.681H141.5Zm1.215,2.285H137.1l.89,1.638h4.715Zm1.168,2.252h-4.724l.936,1.634h4.677Zm1.542-16.5-.706-.42-.932-.377-.888-.233-.981-.095-1.12-.049H138.5l.8.562.7.612Zm-.332,18.783h-4.669l.834,1.64h4.678ZM145.54,13.5a5.448,5.448,0,0,0,.68-.887h-5.052l-.325.8-.512.887h4.347a9.192,9.192,0,0,0,.862-.8m-.21-7.66h-4.86l.512.976.324.657h5.144l-.466-.84Zm.088,20.42H140.8l.659,1.166h4.623Zm1.5-15.887h-5.279l-.1.793-.184.84h5.187l.187-.7Zm-.186-2.246h-5.275l.085.7.1.883h5.332l-.053-.981Z" fill="#002a55"/>
    <path id="Path_62" data-name="Path 62" d="M170.894,2.139q7.941,0,12.731,3.719a11.97,11.97,0,0,1,4.8,9.978,13,13,0,0,1-1.334,5.891,11.972,11.972,0,0,1-3.945,4.482q-3.977,2.711-11.034,2.709a25.8,25.8,0,0,1-7.059-.834,16.515,16.515,0,0,1-5.463-2.812,12.009,12.009,0,0,1-5-9.817,12.183,12.183,0,0,1,5.376-10.226q4.206-3.089,10.936-3.09m-9.442,12.576h-5.794V16.35h5.794Zm.279-2.293h-5.7a3.023,3.023,0,0,0-.184.889l-.139.793H161.5Zm-.188,4.535h-5.836l.139.836.23.852h5.705l-.138-.852Zm.751-6.775h-5.375l-.418.888-.28.747h5.608Zm-.422,9.066h-5.609l.334.887.416.748h5.333l-.241-.658Zm1.353-11.314h-4.81l-.7.847-.469.745h5.279Zm-.7,13.558h-5.19l.566.885.7.75h4.624Zm2.152-15.843h-3.835l-1.87,1.634H163.6l.374-.654Zm-1.121,18.129h-4.4l.984.89.985.744h3.5Zm1.632-18.79.888-.98.841-.791c-.123.031-.56.125-1.3.281a13.746,13.746,0,0,0-1.521.373,7.661,7.661,0,0,0-.91.4c-.346.166-.795.412-1.355.718ZM165.1,26.072h-2.944a13.424,13.424,0,0,0,4.577,1.588l-.978-.894ZM178.369,15.5q0-5.792-1.778-9.154c-1.184-2.244-2.78-3.369-4.811-3.369h-.79l-.89.189-1.071.469a9.077,9.077,0,0,0-3,4.535,16.144,16.144,0,0,0-.77,3.01c-.14.951-.241,1.758-.3,2.431s-.1,1.286-.1,1.84l.1,2.2.28,2.106L165.754,22l.748,2.15a6.434,6.434,0,0,0,2.033,2.967,5.253,5.253,0,0,0,3.2.912,5.38,5.38,0,0,0,4.9-3.088c1.151-2.058,1.728-5.027,1.728-8.925Zm-1.4,10.568a8.992,8.992,0,0,1-1.819,1.914,4.5,4.5,0,0,0,1.212-.142,9.443,9.443,0,0,0,1.173-.422,14.842,14.842,0,0,0,2.286-1.35Zm2.527-21.084-.981-.65-.892-.377-2.379-.791.883.936.659.882Zm.841.661h-3.18l.421.884.331.75h4.114l-.8-.843ZM182.2,23.778h-4.112l-.751,1.634h3.273l.986-.98Zm.326-15.844h-4.346l.465,1.592h4.862l-.515-.842ZM183.7,21.492h-4.959l-.183.885-.28.75h4.395l.554-.8Zm.137-11.31h-5.047l.282,1.635h5.376Zm.749,9.066h-5.42l-.286,1.635h5.1l.324-.842Zm.047-6.826h-5.467l.091,1.682h5.747Zm.371,4.535h-5.7l-.094,1.688h5.56Zm.047-2.242h-5.744V16.35H185.1v-.7Z" fill="#002a55"/>
    <path id="Path_63" data-name="Path 63" d="M211.085,2.981h11.963v.937q-5.28.51-5.278,6.778V17.75a20.405,20.405,0,0,1-.326,4.157,8.619,8.619,0,0,1-1.4,3,8.26,8.26,0,0,1-4.321,3.037,21.826,21.826,0,0,1-7.081,1.029,13.877,13.877,0,0,1-7.481-1.823l-1.4-1.125c-.128-.151-.347-.4-.656-.75a6.566,6.566,0,0,1-.515-.79l-.513-1.219c-.155-.375-.258-.635-.3-.79s-.106-.345-.165-.565l-.194-1.682-.042-2.244v-9.9a11.464,11.464,0,0,0-.162-2.268,2.249,2.249,0,0,0-.63-1.168,2.492,2.492,0,0,0-1.311-.586l-2.151-.139H187.9V2.981h19.723v.937h-1.172l-2.053.043-.748.145-.609.465a1.961,1.961,0,0,0-.653.98l-.185,1.4v14.58a6.558,6.558,0,0,0,1.213,4.251,5.75,5.75,0,0,0,2.007,1.521,6.21,6.21,0,0,0,2.618.538,9.268,9.268,0,0,0,4.116-1.031,7.376,7.376,0,0,0,3.129-2.658,6.968,6.968,0,0,0,1.079-2.643,23.625,23.625,0,0,0,.277-4.135V10.7q0-6.786-5.561-6.778ZM193.98,5.04h5.467a2.512,2.512,0,0,1,.606-1.122h-7.009a3.263,3.263,0,0,1,.936,1.122m.374,2.291h4.955V6.907l.046-.934V5.692h-5.189l.188.8Zm0,2.244h4.955V7.981h-4.955Zm0,2.285h4.955V10.225h-4.955Zm0,2.3h4.955V12.514h-4.955Zm0,2.238h4.955V14.757h-4.955Zm0,2.293h4.955V17.051h-4.955Zm.139,2.244h4.816V19.292h-4.955l.047.933Zm.517,2.291h4.437l-.044-.749-.048-.938h-4.811l.186.938Zm1.542,2.24h3.64l-.375-.746-.23-.89h-4.3l.562.89Zm.7.655,1.214.842,1.312.562,1.494.42a6.5,6.5,0,0,0,1.592.143l-1.316-.893-.931-1.074ZM217.581,4.571l.559-.653H214.4l.937.653Zm-.282.658h-1.357l.612.744.325.84.047-.6a2.038,2.038,0,0,1,.373-.98" fill="#002a55"/>
    <path id="Path_64" data-name="Path 64" d="M224.919,3.121h22.1c1.035,0,1.965.033,2.812.1s1.553.14,2.147.234l1.725.467,1.636.746a5.983,5.983,0,0,1,2.431,2.478,7.463,7.463,0,0,1,.68,1.473,5.787,5.787,0,0,1,.256,1.8,7.88,7.88,0,0,1-.186,1.734,5.045,5.045,0,0,1-.7,1.584,6.255,6.255,0,0,1-2.359,2.432,11.212,11.212,0,0,1-3.226,1.168,27.646,27.646,0,0,1-5.213.373h-7.847v5.518c0,.654.013,1.136.046,1.447s.078.637.139.98a1.851,1.851,0,0,0,.744,1.032,2.962,2.962,0,0,0,1.123.6l2.2.139h1.214v.888H224.919v-.888h1.215l2.056-.088a3.407,3.407,0,0,0,.7-.145l.557-.424a2.168,2.168,0,0,0,.75-1.117c.062-.406.109-.771.142-1.1s.045-.752.045-1.287V8.174a11.559,11.559,0,0,0-.167-2.244,1.961,1.961,0,0,0-.7-1.219,2.874,2.874,0,0,0-1.234-.559l-2.152-.144h-1.215Zm11.542,2.061.189-.612.423-.562h-6.966a4.139,4.139,0,0,1,.935,1.174Zm0,21.074h-5.419l-.421.656-.514.51h6.966Zm-.092-20.42h-5.141l.1.793.045.84h4.955v-1.4Zm-.045,18.129h-4.955v1.076l-.141.564h5.141l-.045-.285Zm0-15.842h-4.912V9.711h4.912Zm0,2.246h-4.912V12h4.912Zm0,2.24h-4.912v1.682h4.912Zm0,2.291h-4.912v1.635h4.912Zm0,2.242h-4.912v1.682h4.912Zm0,2.286h-4.912v1.639h4.912Zm0,2.252h-4.912v1.635h4.912Zm2.85-4.77h5.468a4.484,4.484,0,0,0,3.785-1.639q1.307-1.491,1.31-5,0-6.264-5.1-6.267h-1.31q-2.478,0-3.314.937A2.52,2.52,0,0,0,239.4,6.23a8.6,8.6,0,0,0-.231,2.037ZM252.632,5.182a7.942,7.942,0,0,0-2.009-.936l-1.073-.189-1.311-.049h-.37l.652.377.748.8ZM253.66,14.9h-3.923a5.11,5.11,0,0,1-.82,1.145,7.841,7.841,0,0,1-1.048.865h.37a8.406,8.406,0,0,0,2.944-.471A6.384,6.384,0,0,0,253.66,14.9m-.186-9.064h-3.737l.372.793.281.84h4.4l-.565-.84-.279-.373Zm1.634,6.773h-4.579a8.865,8.865,0,0,1-.42,1.682h4.111a7.313,7.313,0,0,0,.888-1.682m-.046-4.486h-4.576l.18,1.588h4.771l-.144-.793Zm.375,2.246h-4.771v.369L250.623,12h4.67l.1-.84Z" fill="#002a55"/>
    <path id="Path_65" data-name="Path 65" d="M291.655,3.121v9.162h-.793a35.722,35.722,0,0,0-5.84-6.028,13.056,13.056,0,0,0-3.064-1.781,9.519,9.519,0,0,0-3.2-.467h-3.922V14.668h.928A7.06,7.06,0,0,0,279.6,13.64a10.165,10.165,0,0,0,3.088-3.416h.888v9.725h-.888l-.565-.844-.557-.748-1.08-.98a5.13,5.13,0,0,0-1.121-.8,6.623,6.623,0,0,0-3.6-1.028h-.928V27.421h3.83l1.021-.138a9.534,9.534,0,0,0,1.594-.326c.526-.159,1.014-.317,1.444-.5a8.957,8.957,0,0,0,1.685-.951c.283-.191.67-.47,1.174-.843a29.668,29.668,0,0,0,5.559-5.563l.841-.045v9.25H260.575v-.889h1.17l2.055-.087a2.433,2.433,0,0,0,.752-.145l.556-.424a2.517,2.517,0,0,0,.752-1.117c.063-.406.1-.771.137-1.1s.049-.752.049-1.287V8.173A10.821,10.821,0,0,0,265.86,5.9a1.741,1.741,0,0,0-.7-1.143,2.224,2.224,0,0,0-1.209-.609l-2.2-.145h-1.17V3.121Zm-19.677,2.06V4.007h-6.26a4.5,4.5,0,0,1,.931,1.174Zm0,21.074h-5.329a2.373,2.373,0,0,1-.421.657l-.51.509h6.26Zm0-20.466h-5.137l.137.839v.84h5Zm0,18.175h-5v1.077l-.137.564h5.137Zm0-15.841h-5V9.711h5Zm0,2.246h-5V12h5Zm0,2.24h-5v1.682h5Zm0,2.291h-5v1.635h5Zm0,2.242h-5v1.682h5Zm0,2.285h-5v1.639h5Zm0,2.252h-5v1.635h5Zm6.918-6.263,1.169.7.887.65.611.565V15.416Zm.187-.612h2.48V12.89c-.158.156-.375.369-.658.631a6.883,6.883,0,0,1-.84.68Zm6.127,11.17-1.029.7-1.688.742h6.92V25.974Zm3.828-20.515V4.007h-5.982l1.125.657,1.119.8Zm-2.992,19.912h3.367V22.33a22.489,22.489,0,0,1-2.525,2.338Zm2.992-19.305h-2.947l1.033.887a10.5,10.5,0,0,1,1.051,1.027c.263.316.553.641.863.984Z" fill="#002a55"/>
    <path id="Path_66" data-name="Path 66" d="M113.195,36.711V47.979h-.9a12.183,12.183,0,0,0-1.225-2.791,4.824,4.824,0,0,1-.311-.57,5.75,5.75,0,0,0-.542-.9l-1.092-1.471a18.542,18.542,0,0,0-3.787-3.692,5.073,5.073,0,0,0-3.027-.949h-.661V57.115c0,.57.015,1.054.049,1.446a6.689,6.689,0,0,0,.164,1.09,1.876,1.876,0,0,0,.586.926c.2.121.4.248.639.374a1.983,1.983,0,0,0,.645.238l2.224.14h1.183v.9H87.208v-.9h1.183l2.081-.089a2.42,2.42,0,0,0,.756-.146l.568-.43a2.458,2.458,0,0,0,.76-1.131c.061-.412.109-.782.142-1.114a12.938,12.938,0,0,0,.046-1.3V37.61h-.612l-1.092.049L90,37.991a6.943,6.943,0,0,0-1.753,1.136,30.1,30.1,0,0,0-2.608,2.651,17.874,17.874,0,0,0-2.083,3.079L82.9,46.133l-.758,1.846h-.854V36.711ZM84.552,39.08l.808-.758.753-.712H82.138v1.47Zm-.516.615h-1.9v2.75Zm9.321,20.453a2.264,2.264,0,0,1-.425.665l-.513.516h7.1l-.426-.566-.237-.615Zm.194-.659h5.257l-.047-.289V57.827H93.692v.993Zm.141-20.69h5.069V37.61H93.692Zm0,2.317h5.069v-1.7H93.692Zm0,2.271h5.069V41.778H93.692Zm0,2.321h5.069V44.054H93.692Zm0,2.319h5.069v-1.7H93.692Zm0,2.273h5.069V48.644H93.692Zm0,2.319h5.069v-1.7H93.692Zm0,2.272h5.069v-1.66H93.692Zm0,2.277h5.069V55.512H93.692ZM110.5,39.08V37.61h-5.065l.756.569,1.139.9Zm0,.615h-2.511a21.862,21.862,0,0,1,2.511,3.033Z" fill="#313133"/>
    <path id="Path_67" data-name="Path 67" d="M146.58,36.711v9.282h-.813a35.783,35.783,0,0,0-5.912-6.106,13.3,13.3,0,0,0-3.1-1.805,9.625,9.625,0,0,0-3.243-.472h-3.976v10.8h.946a7.128,7.128,0,0,0,3.88-1.041,10.317,10.317,0,0,0,3.127-3.46h.9v9.851h-.9l-.568-.855-.572-.757-1.082-.994a5.548,5.548,0,0,0-1.14-.807,6.717,6.717,0,0,0-3.645-1.041h-.946V61.329h3.879l1.04-.14a9.629,9.629,0,0,0,1.615-.331c.534-.16,1.021-.32,1.464-.5a9.492,9.492,0,0,0,1.71-.964c.279-.194.676-.477,1.177-.855a29.722,29.722,0,0,0,5.637-5.635l.851-.045V62.23H115.091v-.9h1.187l2.081-.089a2.441,2.441,0,0,0,.756-.146l.568-.43a2.453,2.453,0,0,0,.756-1.131c.065-.412.113-.782.146-1.114s.046-.762.046-1.3V41.83a10.571,10.571,0,0,0-.192-2.3,1.715,1.715,0,0,0-.709-1.158,2.256,2.256,0,0,0-1.228-.617l-2.224-.146h-1.187v-.9ZM126.648,38.8V37.61h-6.354a4.5,4.5,0,0,1,.95,1.189Zm0,21.349h-5.4a2.861,2.861,0,0,1-.421.665l-.529.516h6.354Zm0-20.734h-5.214l.144.851v.851h5.07Zm0,18.413h-5.07v1.09l-.144.572h5.214Zm0-16.049h-5.069v1.609h5.069Zm0,2.276h-5.069v1.654h5.069Zm0,2.269h-5.069v1.7h5.069Zm0,2.321h-5.069V50.3h5.069Zm0,2.272h-5.069v1.7h5.069Zm0,2.315h-5.069v1.66h5.069Zm0,2.281h-5.069v1.656h5.069Zm7-6.345,1.179.708.9.659.613.572V49.167Zm.182-.62h2.513V46.608c-.154.159-.376.374-.661.639a7.464,7.464,0,0,1-.855.689Zm6.207,11.316L139,60.577l-1.705.752H144.3V59.863Zm3.886-20.783V37.61H137.87l1.13.664,1.14.806ZM140.9,59.252h3.4V56.171a23.164,23.164,0,0,1-2.55,2.368Zm3.029-19.557h-2.982l1.039.9a9.476,9.476,0,0,1,1.063,1.041c.275.321.559.649.88,1Z" fill="#313133"/>
    <path id="Path_68" data-name="Path 68" d="M148.8,36.712h21.019l3.364.049a10.929,10.929,0,0,1,2.111.212,14.631,14.631,0,0,1,2.1.59,5.433,5.433,0,0,1,2.839,2.229,6.041,6.041,0,0,1,1.091,3.548q0,5.592-6.864,6.773l4.355,8.237a5.6,5.6,0,0,0,1.937,2.315,5.911,5.911,0,0,0,3.082.665v.9H171.859l-6.583-12.073h-2.085v6.958a12.679,12.679,0,0,0,.187,2.375,2.526,2.526,0,0,0,.766,1.06,2.757,2.757,0,0,0,1.132.639l2.269.141h.194v.9H148.8v-.9h1.193l2.078-.089a3.573,3.573,0,0,0,.71-.147l.566-.429a2.263,2.263,0,0,0,.732-1.132,9.486,9.486,0,0,0,.212-2.418V41.83c0-.567-.014-1.052-.044-1.448a8.131,8.131,0,0,0-.168-1.11,1.394,1.394,0,0,0-.52-.829,4.674,4.674,0,0,0-.731-.473,2.22,2.22,0,0,0-.615-.214l-2.22-.146H148.8ZM160.349,38.8V37.61h-6.341a4.3,4.3,0,0,1,.951,1.189Zm.1,21.35h-5.487a2.571,2.571,0,0,1-.429.664l-.522.517h7.1a7.082,7.082,0,0,1-.663-1.181m-.1-20.687h-5.208l.1.8.052.851h5.057Zm0,18.366h-5.057v1.09l-.151.572h5.208Zm0-16.049h-5.012v1.609h5.012Zm0,2.275h-5.012v1.654h5.012Zm0,2.27h-5.012v1.7h5.012Zm0,2.321h-5.012V50.3h5.012Zm0,2.271h-5.012v1.7h5.012Zm0,2.315h-5.012v1.66h5.012Zm0,2.282h-5.012v1.656h5.012Zm2.842-6.207h2.419q5.966,0,5.96-5.819a5.63,5.63,0,0,0-1.935-4.737,6.935,6.935,0,0,0-4.359-1.14h-2.085Zm11.555-.661h-4.023l-.762.562-.9.386-1.13.378-1.561.186.048.144h4.875l1.987-.9.708-.291Zm-3.125,2.271H166.79l.9,1.7h4.78Zm1.235,2.315h-4.834l.9,1.66h4.79Zm1.177,2.282h-4.78l.95,1.656h4.733ZM175.6,38.8l-.71-.425-.946-.382-.9-.236-.989-.1-1.142-.049h-1.464l.807.57.7.619Zm-.33,19.029h-4.731l.843,1.662h4.735Zm1.3-10.606a5.5,5.5,0,0,0,.685-.9h-5.109l-.333.805-.522.9h4.4a8.877,8.877,0,0,0,.876-.806m-.216-7.76h-4.923l.521.989.332.665h5.21l-.477-.851Zm.1,20.687h-4.681l.657,1.181h4.687Zm1.514-16.095h-5.348l-.1.8-.188.851h5.257l.184-.713Zm-.19-2.275h-5.348l.1.714.1.9h5.395l-.047-.994Z" fill="#313133"/>
    <path id="Path_69" data-name="Path 69" d="M185.727,36.712h21.029l3.358.049a10.991,10.991,0,0,1,2.107.212,14.976,14.976,0,0,1,2.107.59,5.436,5.436,0,0,1,2.837,2.229,6.032,6.032,0,0,1,1.1,3.548q0,5.592-6.874,6.773l4.363,8.237a5.528,5.528,0,0,0,1.941,2.315,5.856,5.856,0,0,0,3.075.665v.9H208.788l-6.581-12.073h-2.086v6.958a12.321,12.321,0,0,0,.19,2.375,2.452,2.452,0,0,0,.758,1.06,2.788,2.788,0,0,0,1.138.639l2.271.141h.19v.9H185.727v-.9h1.187l2.09-.089a3.553,3.553,0,0,0,.706-.147l.57-.429a2.311,2.311,0,0,0,.728-1.132,9.509,9.509,0,0,0,.21-2.418V41.83c0-.567-.016-1.052-.042-1.448a8.131,8.131,0,0,0-.168-1.11,1.363,1.363,0,0,0-.524-.829,4.114,4.114,0,0,0-.733-.473,2.115,2.115,0,0,0-.615-.214l-2.222-.146h-1.187ZM197.284,38.8V37.61h-6.345a4.287,4.287,0,0,1,.947,1.189Zm.091,21.35h-5.489a2.536,2.536,0,0,1-.427.664l-.52.517h7.1a6.588,6.588,0,0,1-.667-1.181m-.091-20.687h-5.206l.1.8.046.851h5.065Zm0,18.366h-5.065v1.09l-.141.572h5.206Zm0-16.049h-5.022v1.609h5.022Zm0,2.275h-5.022v1.654h5.022Zm0,2.27h-5.022v1.7h5.022Zm0,2.321h-5.022V50.3h5.022Zm0,2.271h-5.022v1.7h5.022Zm0,2.315h-5.022v1.66h5.022Zm0,2.282h-5.022v1.656h5.022Zm2.837-6.207h2.414q5.978,0,5.968-5.819a5.647,5.647,0,0,0-1.935-4.737,6.934,6.934,0,0,0-4.361-1.14h-2.086Zm11.554-.661h-4.027l-.754.562-.9.386-1.14.378-1.561.186.048.144h4.877l1.991-.9.708-.291Zm-3.125,2.271h-4.835l.908,1.7H209.4Zm1.229,2.315h-4.828l.9,1.66h4.782Zm1.187,2.282h-4.782l.948,1.656h4.737ZM212.527,38.8l-.706-.425-.95-.382-.9-.236-.985-.1-1.144-.049h-1.462l.8.57.711.619ZM212.2,57.828h-4.737l.855,1.662h4.731Zm1.3-10.606a5.3,5.3,0,0,0,.687-.9h-5.119l-.325.805-.526.9h4.406a8.357,8.357,0,0,0,.877-.806m-.214-7.76h-4.924l.516.989.332.665h5.206l-.469-.851Zm.1,20.687h-4.691l.665,1.181h4.687ZM214.9,44.054h-5.348l-.1.8-.19.851h5.251L214.7,45Zm-.192-2.275h-5.348l.1.714.1.9h5.391l-.043-.994Z" fill="#313133"/>
    <path id="Path_70" data-name="Path 70" d="M239.18,35.717q8.055,0,12.907,3.767a12.14,12.14,0,0,1,4.851,10.109,13.222,13.222,0,0,1-1.347,5.967,12.116,12.116,0,0,1-4.005,4.541q-4.024,2.745-11.167,2.745A26.1,26.1,0,0,1,233.268,62a16.809,16.809,0,0,1-5.542-2.849,12.156,12.156,0,0,1-5.066-9.945,12.369,12.369,0,0,1,5.442-10.36q4.265-3.129,11.078-3.13m-9.565,12.74h-5.867v1.656h5.867Zm.287-2.323h-5.773a2.984,2.984,0,0,0-.19.9l-.139.8h5.873Zm-.186,4.594H223.8l.139.847.235.863h5.776l-.143-.863Zm.762-6.863h-5.449l-.426.9-.286.756H230Zm-.433,9.184h-5.681l.332.9.422.758h5.4l-.236-.667Zm1.371-11.462h-4.875l-.711.859-.469.754h5.348Zm-.707,13.736h-5.253l.566.9.71.76h4.684Zm2.177-16.051H229l-1.89,1.656H231.8l.38-.662ZM231.75,57.638H227.3l.994.9.993.754h3.552ZM233.41,38.6l.891-.993.854-.8c-.12.031-.563.126-1.323.285a14.528,14.528,0,0,0-1.54.378,8.281,8.281,0,0,0-.924.4c-.344.168-.8.418-1.371.728Zm-.1,21.36h-2.983a13.6,13.6,0,0,0,4.639,1.608l-1-.906ZM246.76,49.256q0-5.866-1.8-9.273c-1.193-2.274-2.826-3.414-4.874-3.414h-.807l-.9.192-1.089.475a9.192,9.192,0,0,0-3.027,4.6,16.374,16.374,0,0,0-.787,3.049c-.137.963-.24,1.78-.3,2.463s-.1,1.3-.1,1.864l.1,2.23.285,2.133.516,2.271.76,2.179a6.546,6.546,0,0,0,2.056,3.005,5.344,5.344,0,0,0,3.243.924A5.441,5.441,0,0,0,245,58.821q1.756-3.127,1.757-9.042Zm-1.422,10.707a9.171,9.171,0,0,1-1.847,1.939,4.574,4.574,0,0,0,1.227-.145,8.819,8.819,0,0,0,1.187-.427,14.99,14.99,0,0,0,2.321-1.367ZM247.9,38.6l-1-.658-.9-.382-2.418-.8.9.948.667.894Zm.851.669h-3.22l.422.9.334.759h4.163l-.8-.854Zm1.887,18.366h-4.167l-.756,1.656h3.317l.993-.993Zm.335-16.051h-4.4l.471,1.613h4.927l-.528-.853Zm1.183,13.736h-5.014l-.192.9-.289.76h4.45l.568-.807Zm.146-11.458H247.19l.276,1.656h5.45Zm.752,9.184h-5.487l-.29,1.657h5.164l.33-.853Zm.052-6.915h-5.539l.089,1.7h5.831Zm.381,4.594h-5.781l-.1,1.71h5.637Zm.04-2.271h-5.821v1.656h5.867V49.4Z" fill="#313133"/>
    <path id="Path_71" data-name="Path 71" d="M290.741,36.711V47.979h-.9a12.862,12.862,0,0,0-1.235-2.791,4.358,4.358,0,0,1-.3-.57,5.331,5.331,0,0,0-.55-.9l-1.084-1.471a18.891,18.891,0,0,0-3.783-3.692,5.114,5.114,0,0,0-3.034-.949h-.664V57.115c0,.57.017,1.054.043,1.446a7.384,7.384,0,0,0,.17,1.09,1.872,1.872,0,0,0,.59.926c.2.121.4.248.641.374a1.99,1.99,0,0,0,.641.238l2.226.14h1.179v.9H264.75v-.9h1.187l2.079-.089a2.421,2.421,0,0,0,.758-.146l.56-.43a2.483,2.483,0,0,0,.768-1.131c.061-.412.109-.782.142-1.114s.048-.762.048-1.3V37.61h-.624l-1.08.049-1.045.332a6.943,6.943,0,0,0-1.753,1.136,31.02,31.02,0,0,0-2.61,2.651,17.7,17.7,0,0,0-2.073,3.079l-.669,1.276-.754,1.846h-.851V36.711ZM262.1,39.08l.8-.758.758-.712h-3.977v1.47Zm-.524.615h-1.892v2.75ZM270.9,60.148a2.434,2.434,0,0,1-.425.665l-.519.516h7.1l-.43-.566-.231-.615Zm.188-.659h5.259L276.3,59.2V57.827h-5.067v.993Zm.143-20.69H276.3V37.61h-5.067Zm0,2.317H276.3v-1.7h-5.067Zm0,2.271H276.3V41.778h-5.067Zm0,2.321H276.3V44.054h-5.067Zm0,2.319H276.3v-1.7h-5.067Zm0,2.273H276.3V48.644h-5.067Zm0,2.319H276.3v-1.7h-5.067Zm0,2.272H276.3v-1.66h-5.067Zm0,2.277H276.3V55.512h-5.067ZM288.04,39.08V37.61h-5.063l.76.569,1.133.9Zm0,.615h-2.509a22.274,22.274,0,0,1,2.509,3.033Z" fill="#313133"/>
    <path id="Path_72" data-name="Path 72" d="M147.59,73.6c0-1.481,0-1.748-.019-2.048-.019-.328-.1-.479-.41-.542a1.575,1.575,0,0,0-.323-.027.068.068,0,0,1-.073-.061c0-.053.051-.074.15-.074.431,0,1.028.025,1.075.025.113,0,.709-.025,1.283-.025.937,0,2.676-.087,3.806,1.083A3.39,3.39,0,0,1,154,74.342a3.856,3.856,0,0,1-1.029,2.677,3.771,3.771,0,0,1-2.878,1.089c-.4,0-.906-.028-1.315-.055s-.74-.055-.789-.055c-.021,0-.181,0-.38.007s-.408.021-.554.021c-.1,0-.15-.021-.15-.08,0-.028.021-.055.074-.055a1.446,1.446,0,0,0,.286-.038c.192-.036.238-.247.275-.521.049-.4.049-1.147.049-2.062Zm.8,1.026c0,1,.012,1.878.021,2.064a2.043,2.043,0,0,0,.106.719c.12.18.491.377,1.61.377a3.172,3.172,0,0,0,2.261-.882,3.317,3.317,0,0,0,.76-2.266,3.382,3.382,0,0,0-.914-2.4,3.884,3.884,0,0,0-3.1-1.073,2.722,2.722,0,0,0-.615.065.175.175,0,0,0-.115.191c-.012.326-.012,1.291-.012,2.024Z" fill="#313133"/>
    <path id="Path_73" data-name="Path 73" d="M157.917,73.6c0-1.481,0-1.747-.016-2.048-.021-.327-.1-.479-.409-.542a1.638,1.638,0,0,0-.323-.027c-.041,0-.08-.025-.08-.061,0-.053.048-.074.156-.074.216,0,.472,0,.681.009l.388.017c.067,0,1.958,0,2.177,0a2.685,2.685,0,0,0,.407-.05c.045-.009.087-.049.133-.049.029,0,.042.04.042.087,0,.065-.052.181-.083.443-.005.1-.025.517-.047.631-.008.043-.029.1-.064.1-.055,0-.074-.048-.074-.125a1.154,1.154,0,0,0-.055-.343c-.071-.15-.166-.267-.678-.323-.162-.019-1.194-.024-1.3-.024-.041,0-.06.024-.06.093v2.62c0,.065.014.093.06.093.122,0,1.291,0,1.509-.017s.359-.039.445-.132c.067-.076.107-.123.144-.123s.044.016.044.076-.044.219-.074.531c-.016.188-.035.544-.035.606,0,.078,0,.178-.068.178-.049,0-.064-.035-.064-.079a.859.859,0,0,0-.043-.315c-.035-.132-.12-.294-.49-.332-.256-.028-1.2-.048-1.36-.048-.049,0-.068.024-.068.063v.836c0,.328-.007,1.425,0,1.626.033.655.174.778,1.1.778a2.717,2.717,0,0,0,.91-.1c.249-.1.363-.293.425-.685.021-.1.042-.141.086-.141.061,0,.061.074.061.141a8.947,8.947,0,0,1-.126.921c-.064.247-.141.247-.508.247-.715,0-1.238-.019-1.61-.027s-.6-.028-.74-.028c-.013,0-.176,0-.378.008s-.408.02-.549.02c-.1,0-.153-.02-.153-.08,0-.028.018-.054.076-.054a1.438,1.438,0,0,0,.283-.039c.189-.035.238-.247.278-.521.046-.4.046-1.146.046-2.062Z" fill="#313133"/>
    <path id="Path_74" data-name="Path 74" d="M165.424,73.6c0-1.481,0-1.747-.021-2.048-.019-.327-.092-.479-.407-.542a1.638,1.638,0,0,0-.323-.027c-.043,0-.078-.025-.078-.061,0-.053.049-.074.152-.074.43,0,1,.026,1.072.026.209,0,.757-.026,1.2-.026a2.328,2.328,0,0,1,1.767.538,1.659,1.659,0,0,1,.475,1.13,2.208,2.208,0,0,1-2.337,2.263,1.48,1.48,0,0,1-.2-.009c-.048,0-.1-.019-.1-.067,0-.077.056-.084.256-.084a1.576,1.576,0,0,0,1.64-1.551,1.99,1.99,0,0,0-.529-1.458,1.649,1.649,0,0,0-1.3-.479,1.19,1.19,0,0,0-.41.058c-.055.019-.074.087-.074.178v3.9c0,.916,0,1.663.047,2.062.027.274.085.486.372.521a4.006,4.006,0,0,0,.428.039c.053,0,.076.026.076.054,0,.052-.049.08-.156.08-.52,0-1.119-.028-1.168-.028-.025,0-.622.028-.907.028-.106,0-.152-.02-.152-.08,0-.028.016-.054.072-.054a1.509,1.509,0,0,0,.289-.039c.188-.035.237-.247.273-.521.05-.4.05-1.146.05-2.062Z" fill="#313133"/>
    <path id="Path_75" data-name="Path 75" d="M172.68,73.6c0-1.481,0-1.747-.021-2.048-.016-.327-.093-.479-.407-.542a1.61,1.61,0,0,0-.324-.027.069.069,0,0,1-.074-.061c0-.053.046-.074.151-.074.429,0,1.007.026,1.091.026s.655-.026.942-.026c.1,0,.151.021.151.074a.069.069,0,0,1-.072.061,1.183,1.183,0,0,0-.24.027c-.258.037-.335.21-.353.542-.021.3-.021.567-.021,2.048v1.331a2.93,2.93,0,0,0,.716,2.346,1.853,1.853,0,0,0,1.432.521,2,2,0,0,0,1.49-.682,3.707,3.707,0,0,0,.552-2.33V73.6c0-1.481,0-1.747-.019-2.048-.023-.327-.1-.479-.412-.542a1.568,1.568,0,0,0-.321-.027.07.07,0,0,1-.076-.061c0-.053.05-.074.153-.074.429,0,.949.026,1,.026s.516-.026.8-.026c.1,0,.149.021.149.074a.069.069,0,0,1-.074.061,1.2,1.2,0,0,0-.237.027c-.257.056-.331.21-.352.542-.019.3-.019.567-.019,2.048v1.019a3.7,3.7,0,0,1-.875,2.839,2.769,2.769,0,0,1-1.952.7,2.938,2.938,0,0,1-1.96-.672,3.149,3.149,0,0,1-.823-2.5Z" fill="#313133"/>
    <path id="Path_76" data-name="Path 76" d="M183.621,75.271c0,.915,0,1.663.049,2.061.029.274.086.486.37.522a4.21,4.21,0,0,0,.425.038c.059,0,.076.027.076.055,0,.052-.045.08-.153.08-.518,0-1.116-.028-1.164-.028s-.647.028-.931.028c-.107,0-.154-.021-.154-.08,0-.028.023-.055.08-.055a1.541,1.541,0,0,0,.285-.038c.188-.036.236-.248.271-.522.051-.4.051-1.146.051-2.061V73.6c0-1.481,0-1.748-.022-2.049-.017-.327-.112-.485-.322-.536a1.33,1.33,0,0,0-.3-.032.068.068,0,0,1-.073-.061c0-.053.049-.074.152-.074.312,0,.91.025.959.025s.646-.025.93-.025c.1,0,.15.021.15.074a.07.07,0,0,1-.077.061,1.3,1.3,0,0,0-.236.026c-.254.048-.334.211-.349.542-.021.3-.021.568-.021,2.049Z" fill="#313133"/>
    <path id="Path_77" data-name="Path 77" d="M188.107,77.9c-.135-.065-.142-.1-.142-.36,0-.477.038-.851.044-1,.014-.109.033-.154.079-.154s.069.028.069.1a1.751,1.751,0,0,0,.027.351,1.292,1.292,0,0,0,1.408.969,1.261,1.261,0,0,0,1.352-1.262c0-.656-.273-1.034-1.092-1.709l-.422-.351c-1.011-.828-1.239-1.416-1.239-2.058a1.741,1.741,0,0,1,1.966-1.711,3.577,3.577,0,0,1,.882.1,1.573,1.573,0,0,0,.333.047c.079,0,.1.017.1.065s-.038.363-.038,1.009c0,.152-.017.219-.068.219s-.066-.05-.074-.124a1.686,1.686,0,0,0-.126-.474c-.058-.105-.313-.505-1.187-.505a1.08,1.08,0,0,0-1.168,1.1c0,.539.247.883,1.161,1.591l.264.21c1.118.884,1.386,1.472,1.386,2.235a1.962,1.962,0,0,1-.806,1.574,2.5,2.5,0,0,1-1.433.4,2.9,2.9,0,0,1-1.274-.256" fill="#313133"/>
    <path id="Path_78" data-name="Path 78" d="M202.173,75.139a21.719,21.719,0,0,0,.049,2.184c.037.295.074.437.379.5a6.283,6.283,0,0,0,.628.056.093.093,0,0,1,.086.076c0,.047-.051.068-.163.068-.712,0-1.318-.028-1.369-.028s-.845.028-1.454.028c-.1,0-.158-.021-.158-.068a.08.08,0,0,1,.077-.076,6.769,6.769,0,0,0,.762-.065c.313-.058.375-.2.4-.5.03-.419.03-1.235.03-2.184v-3.1c0-.19-.02-.3-.177-.3a6.072,6.072,0,0,0-1.081.454.183.183,0,0,1-.109.042c-.033,0-.071-.05-.071-.085s.032-.066.071-.1l1.83-1.224a.488.488,0,0,1,.228-.115c.076,0,.11.1.11.2,0,.074-.048,1.016-.054,2.466Z" fill="#313133"/>
    <path id="Path_79" data-name="Path 79" d="M210.987,73.3a5.747,5.747,0,0,1-3.283,4.888.442.442,0,0,1-.151.039.086.086,0,0,1-.077-.1.145.145,0,0,1,.1-.132,5.192,5.192,0,0,0,2.578-4.427c0-1.661-.728-2.5-1.564-2.5a1.331,1.331,0,0,0-1.3,1.45,1.691,1.691,0,0,0,1.428,1.891,1.265,1.265,0,0,0,.757-.171.272.272,0,0,1,.125-.056c.029,0,.048.037.048.065a.1.1,0,0,1-.039.076,1.629,1.629,0,0,1-1.136.437,1.823,1.823,0,0,1-1.92-1.831,2.153,2.153,0,0,1,2.268-2.212,2.307,2.307,0,0,1,2.173,2.584" fill="#313133"/>
    <path id="Path_80" data-name="Path 80" d="M217.162,75.349h.721a.8.8,0,0,0,.391-.1c.05,0,.05.063.05.114a2.445,2.445,0,0,1-.086.38.179.179,0,0,1-.2.12h-.873c0,.316-.019,1.046.017,1.465.035.283.106.444.411.523a2.625,2.625,0,0,0,.419.037.079.079,0,0,1,.083.075c0,.047-.046.068-.152.068-.521,0-1.129-.028-1.2-.028s-.576.028-1.1.028c-.107,0-.154-.021-.154-.068a.073.073,0,0,1,.078-.075,4.438,4.438,0,0,0,.443-.03c.318-.047.384-.247.412-.53.035-.419.02-1.149.02-1.465h-2.9c-.112,0-.2-.024-.2-.111a.363.363,0,0,1,.086-.2c.056-.07,3.144-4.249,3.45-4.665.071-.1.132-.169.2-.169s.094.067.094.158c0,.143-.011.9-.011,1.424Zm-.717-3.362h-.02c-.142.247-2.233,3.123-2.413,3.362h2.433Z" fill="#313133"/>
    <path id="Path_81" data-name="Path 81" d="M225.259,73.3a5.749,5.749,0,0,1-3.283,4.888.475.475,0,0,1-.157.039.088.088,0,0,1-.074-.1.151.151,0,0,1,.093-.132,5.187,5.187,0,0,0,2.584-4.427c0-1.661-.73-2.5-1.567-2.5a1.326,1.326,0,0,0-1.3,1.45,1.693,1.693,0,0,0,1.423,1.891,1.261,1.261,0,0,0,.756-.171.257.257,0,0,1,.128-.056c.03,0,.046.037.046.065a.1.1,0,0,1-.034.076,1.648,1.648,0,0,1-1.144.437,1.823,1.823,0,0,1-1.915-1.831,2.154,2.154,0,0,1,2.271-2.212,2.307,2.307,0,0,1,2.173,2.584" fill="#313133"/>
    <path id="Path_82" data-name="Path 82" d="M31.85,64.106A26.472,26.472,0,0,0,57.961,33.368H41.6v24.2l-3.091,1.5V30.284H60.519A29.6,29.6,0,1,1,2.257,38.059a35.9,35.9,0,0,1,.306-4.691,29.6,29.6,0,0,1,56.206-8.035h-3.5A26.469,26.469,0,0,0,6.644,29.585a32.616,32.616,0,0,0-.909,3.783,30.226,30.226,0,0,0-.34,4.691A26.458,26.458,0,0,0,31.85,64.106" fill="#002a55" fill-rule="evenodd"/>
    <path id="Path_83" data-name="Path 83" d="M33.225,22.85H15.681l-1.987,3.084H30.14V60.065h3.085V25.934H50.016l-1.99-3.084Z" fill="#002a55" fill-rule="evenodd"/>
    <path id="Path_84" data-name="Path 84" d="M22.185,33.367v24.2l3.085,1.5V30.283H10.518L8.532,33.365Z" fill="#002a55" fill-rule="evenodd"/>
    <path id="Path_85" data-name="Path 85" d="M31.85,69.5A31.851,31.851,0,1,1,63.705,37.646,31.888,31.888,0,0,1,31.85,69.5m0-63.3A31.451,31.451,0,1,0,63.305,37.646,31.486,31.486,0,0,0,31.85,6.2" fill="#313133"/>
    <rect id="Rectangle_257" data-name="Rectangle 257" width="1" height="72.726" transform="translate(70.845 0)" fill="#313133"/>
  </g>
</svg>
